<svg width="82" height="107" viewBox="0 0 82 107" fill="none" xmlns="http://www.w3.org/2000/svg">
<g filter="url(#filter0_d)">
<path d="M26.7338 4.64039C26.5249 4.68257 26.3097 4.72475 26.1261 4.86534C25.3855 5.42069 25.221 6.57356 25.721 7.39604L29.2151 13.1885C23.8157 16.3659 19.7899 21.6453 18.4796 27.979H63.2445C61.9342 21.6453 57.9084 16.3659 52.509 13.1885L56.0031 7.39604C56.5032 6.57356 56.3386 5.42069 55.598 4.86534C54.8511 4.30999 53.8193 4.54901 53.3192 5.37148L49.4707 11.6701C46.7995 10.5875 43.9004 9.98297 40.8621 9.98297C37.8237 9.98297 34.9246 10.5875 32.2534 11.6701L28.4049 5.37148C28.0314 4.75287 27.3541 4.50683 26.7338 4.64039ZM31.9496 18.981C33.2915 18.981 34.3803 20.1901 34.3803 21.6804C34.3803 23.1777 33.2915 24.3798 31.9496 24.3798C30.6013 24.3798 29.5189 23.1777 29.5189 21.6804C29.5189 20.1901 30.6013 18.981 31.9496 18.981ZM49.7745 18.981C51.1228 18.981 52.2052 20.1901 52.2052 21.6804C52.2052 23.1777 51.1228 24.3798 49.7745 24.3798C48.4326 24.3798 47.3438 23.1777 47.3438 21.6804C47.3438 20.1901 48.4326 18.981 49.7745 18.981ZM13.3145 31.5782C10.6306 31.5782 8.45312 33.9965 8.45312 36.9771V62.1715C8.45312 65.1521 10.6306 67.5704 13.3145 67.5704C13.8842 67.5704 14.4285 67.4368 14.9349 67.2329V31.9157C14.4285 31.7118 13.8842 31.5782 13.3145 31.5782ZM18.1758 31.5782V71.1696C18.1758 74.1432 20.3596 76.5684 23.0371 76.5684H58.687C61.3645 76.5684 63.5483 74.1432 63.5483 71.1696V31.5782H18.1758ZM68.4097 31.5782C67.84 31.5782 67.2956 31.7118 66.7892 31.9157V67.2329C67.2956 67.4298 67.84 67.5704 68.4097 67.5704C71.0935 67.5704 73.271 65.1521 73.271 62.1715V36.9771C73.271 33.9965 71.0935 31.5782 68.4097 31.5782ZM24.6576 80.1676V87.366C24.6576 91.3378 27.563 94.5645 31.1394 94.5645C34.7158 94.5645 37.6212 91.3378 37.6212 87.366V80.1676H24.6576ZM44.103 80.1676V87.366C44.103 91.3378 47.0084 94.5645 50.5847 94.5645C54.1611 94.5645 57.0665 91.3378 57.0665 87.366V80.1676H44.103Z" fill="url(#paint0_linear)"/>
</g>
<defs>
<filter id="filter0_d" x="0.453125" y="0.564453" width="80.8179" height="106" filterUnits="userSpaceOnUse" color-interpolation-filters="sRGB">
<feFlood flood-opacity="0" result="BackgroundImageFix"/>
<feColorMatrix in="SourceAlpha" type="matrix" values="0 0 0 0 0 0 0 0 0 0 0 0 0 0 0 0 0 0 127 0"/>
<feOffset dy="4"/>
<feGaussianBlur stdDeviation="4"/>
<feColorMatrix type="matrix" values="0 0 0 0 0 0 0 0 0 0 0 0 0 0 0 0 0 0 0.25 0"/>
<feBlend mode="normal" in2="BackgroundImageFix" result="effect1_dropShadow"/>
<feBlend mode="normal" in="SourceGraphic" in2="effect1_dropShadow" result="shape"/>
</filter>
<linearGradient id="paint0_linear" x1="15.0822" y1="10.1895" x2="87.3261" y2="68.0005" gradientUnits="userSpaceOnUse">
<stop offset="0.0625" stop-color="#0072FF"/>
<stop offset="0.379615" stop-color="#0E4F96"/>
<stop offset="1" stop-color="#07294D"/>
</linearGradient>
</defs>
</svg>
