<svg width="86" height="85" viewBox="0 0 86 85" fill="none" xmlns="http://www.w3.org/2000/svg">
<g filter="url(#filter0_d)">
<path d="M73.4794 4H13.2545C10.8384 4 8.87402 6.03714 8.87402 8.54269V70.9958C8.87402 73.5013 10.8384 75.5385 13.2545 75.5385H73.4777C75.8938 75.5385 77.8582 73.5013 77.8582 70.9975V8.54269C77.8582 6.03714 75.8938 4 73.4794 4ZM46.6511 58.8155C46.6511 65.6253 42.8011 68.7253 37.1805 68.7253C32.102 68.7253 28.436 65.1943 26.9413 61.9121L32.1036 58.6707C33.1006 60.5035 34.6166 61.9121 36.7962 61.9121C38.8805 61.9121 40.0812 61.0672 40.0812 57.7799V36.3626H46.6511V58.8155ZM60.9029 68.7253C55.0819 68.7253 51.7756 65.6815 49.936 61.9121L54.8635 58.5055C56.207 60.7794 57.6672 62.9579 60.7584 62.9579C63.3551 62.9579 64.7184 61.6123 64.7184 59.7523C64.7184 57.5244 63.3091 56.7341 60.4512 55.4379L58.8843 54.7412C54.3625 52.7432 51.3568 50.2394 51.3568 44.949C51.3568 40.0741 54.9374 36.3643 60.535 36.3643C64.5196 36.3643 67.3841 37.8019 69.4487 41.5679L64.5689 44.8178C63.4947 42.8198 62.3351 42.0329 60.535 42.0329C58.6987 42.0329 57.5358 43.2405 57.5358 44.8178C57.5358 46.7681 58.7003 47.5567 61.3891 48.7643L62.956 49.461C68.2826 51.8269 71.2883 54.2404 71.2883 59.6688C71.2883 65.5197 66.8552 68.7253 60.9029 68.7253Z" fill="url(#paint0_linear)"/>
</g>
<defs>
<filter id="filter0_d" x="0.874023" y="0" width="84.9842" height="87.5385" filterUnits="userSpaceOnUse" color-interpolation-filters="sRGB">
<feFlood flood-opacity="0" result="BackgroundImageFix"/>
<feColorMatrix in="SourceAlpha" type="matrix" values="0 0 0 0 0 0 0 0 0 0 0 0 0 0 0 0 0 0 127 0"/>
<feOffset dy="4"/>
<feGaussianBlur stdDeviation="4"/>
<feColorMatrix type="matrix" values="0 0 0 0 0 0 0 0 0 0 0 0 0 0 0 0 0 0 0.25 0"/>
<feBlend mode="normal" in2="BackgroundImageFix" result="effect1_dropShadow"/>
<feBlend mode="normal" in="SourceGraphic" in2="effect1_dropShadow" result="shape"/>
</filter>
<linearGradient id="paint0_linear" x1="15.9292" y1="8.47115" x2="74.646" y2="71.3826" gradientUnits="userSpaceOnUse">
<stop offset="0.0625" stop-color="#0072FF"/>
<stop offset="0.379615" stop-color="#0E4F96"/>
<stop offset="1" stop-color="#07294D"/>
</linearGradient>
</defs>
</svg>
