<svg width="80" height="80" viewBox="0 0 80 80" fill="none" xmlns="http://www.w3.org/2000/svg">
<g clip-path="url(#clip0)">
<g filter="url(#filter0_d)">
<path d="M68.4515 42.7063H62.2646C62.8953 44.4329 63.2398 46.2961 63.2398 48.2382V71.621C63.2398 72.4307 63.0989 73.2079 62.8425 73.9307H73.0708C76.8915 73.9307 79.9998 70.8223 79.9998 67.0017V54.2546C80 47.8869 74.8194 42.7063 68.4515 42.7063Z" fill="url(#paint0_linear)"/>
</g>
<g filter="url(#filter1_d)">
<path d="M16.7602 48.2384C16.7602 46.2962 17.1047 44.4331 17.7353 42.7065H11.5485C5.18063 42.7065 0 47.8872 0 54.255V67.0021C0 70.8227 3.10829 73.9311 6.92908 73.9311H17.1575C16.9011 73.208 16.7602 72.431 16.7602 71.6213V48.2384Z" fill="url(#paint1_linear)"/>
</g>
<g filter="url(#filter2_d)">
<path d="M47.0719 36.6899H32.9279C26.56 36.6899 21.3794 41.8706 21.3794 48.2384V71.6213C21.3794 72.8967 22.4135 73.9309 23.6891 73.9309H56.3107C57.5863 73.9309 58.6204 72.8969 58.6204 71.6213V48.2384C58.6204 41.8706 53.4398 36.6899 47.0719 36.6899Z" fill="url(#paint2_linear)"/>
</g>
<g filter="url(#filter3_d)">
<path d="M40.0003 6.06873C32.3421 6.06873 26.1118 12.299 26.1118 19.9573C26.1118 25.1519 28.9789 29.6886 33.2129 32.0705C35.2212 33.2002 37.5365 33.8458 40.0003 33.8458C42.464 33.8458 44.7793 33.2002 46.7876 32.0705C51.0219 29.6886 53.8887 25.1517 53.8887 19.9573C53.8887 12.2992 47.6584 6.06873 40.0003 6.06873Z" fill="url(#paint3_linear)"/>
</g>
<g filter="url(#filter4_d)">
<path d="M15.6123 19.0139C9.88497 19.0139 5.22559 23.6733 5.22559 29.4007C5.22559 35.128 9.88497 39.7874 15.6123 39.7874C17.0651 39.7874 18.4486 39.4865 19.7053 38.9455C21.8781 38.01 23.6697 36.3541 24.7783 34.2799C25.5564 32.8241 25.9991 31.1633 25.9991 29.4007C25.9991 23.6735 21.3397 19.0139 15.6123 19.0139Z" fill="url(#paint4_linear)"/>
</g>
<g filter="url(#filter5_d)">
<path d="M64.3882 19.0139C58.6608 19.0139 54.0015 23.6733 54.0015 29.4007C54.0015 31.1635 54.4441 32.8243 55.2223 34.2799C56.3308 36.3543 58.1224 38.0102 60.2952 38.9455C61.5519 39.4865 62.9354 39.7874 64.3882 39.7874C70.1156 39.7874 74.7749 35.128 74.7749 29.4007C74.7749 23.6733 70.1156 19.0139 64.3882 19.0139Z" fill="url(#paint5_linear)"/>
</g>
</g>
<defs>
<filter id="filter0_d" x="54.2646" y="38.7063" width="33.7352" height="47.2244" filterUnits="userSpaceOnUse" color-interpolation-filters="sRGB">
<feFlood flood-opacity="0" result="BackgroundImageFix"/>
<feColorMatrix in="SourceAlpha" type="matrix" values="0 0 0 0 0 0 0 0 0 0 0 0 0 0 0 0 0 0 127 0"/>
<feOffset dy="4"/>
<feGaussianBlur stdDeviation="4"/>
<feColorMatrix type="matrix" values="0 0 0 0 0 0 0 0 0 0 0 0 0 0 0 0 0 0 0.25 0"/>
<feBlend mode="normal" in2="BackgroundImageFix" result="effect1_dropShadow"/>
<feBlend mode="normal" in="SourceGraphic" in2="effect1_dropShadow" result="shape"/>
</filter>
<filter id="filter1_d" x="-8" y="38.7065" width="33.7353" height="47.2246" filterUnits="userSpaceOnUse" color-interpolation-filters="sRGB">
<feFlood flood-opacity="0" result="BackgroundImageFix"/>
<feColorMatrix in="SourceAlpha" type="matrix" values="0 0 0 0 0 0 0 0 0 0 0 0 0 0 0 0 0 0 127 0"/>
<feOffset dy="4"/>
<feGaussianBlur stdDeviation="4"/>
<feColorMatrix type="matrix" values="0 0 0 0 0 0 0 0 0 0 0 0 0 0 0 0 0 0 0.25 0"/>
<feBlend mode="normal" in2="BackgroundImageFix" result="effect1_dropShadow"/>
<feBlend mode="normal" in="SourceGraphic" in2="effect1_dropShadow" result="shape"/>
</filter>
<filter id="filter2_d" x="13.3794" y="32.6899" width="53.241" height="53.241" filterUnits="userSpaceOnUse" color-interpolation-filters="sRGB">
<feFlood flood-opacity="0" result="BackgroundImageFix"/>
<feColorMatrix in="SourceAlpha" type="matrix" values="0 0 0 0 0 0 0 0 0 0 0 0 0 0 0 0 0 0 127 0"/>
<feOffset dy="4"/>
<feGaussianBlur stdDeviation="4"/>
<feColorMatrix type="matrix" values="0 0 0 0 0 0 0 0 0 0 0 0 0 0 0 0 0 0 0.25 0"/>
<feBlend mode="normal" in2="BackgroundImageFix" result="effect1_dropShadow"/>
<feBlend mode="normal" in="SourceGraphic" in2="effect1_dropShadow" result="shape"/>
</filter>
<filter id="filter3_d" x="18.1118" y="2.06873" width="43.7769" height="43.7771" filterUnits="userSpaceOnUse" color-interpolation-filters="sRGB">
<feFlood flood-opacity="0" result="BackgroundImageFix"/>
<feColorMatrix in="SourceAlpha" type="matrix" values="0 0 0 0 0 0 0 0 0 0 0 0 0 0 0 0 0 0 127 0"/>
<feOffset dy="4"/>
<feGaussianBlur stdDeviation="4"/>
<feColorMatrix type="matrix" values="0 0 0 0 0 0 0 0 0 0 0 0 0 0 0 0 0 0 0.25 0"/>
<feBlend mode="normal" in2="BackgroundImageFix" result="effect1_dropShadow"/>
<feBlend mode="normal" in="SourceGraphic" in2="effect1_dropShadow" result="shape"/>
</filter>
<filter id="filter4_d" x="-2.77441" y="15.0139" width="36.7735" height="36.7735" filterUnits="userSpaceOnUse" color-interpolation-filters="sRGB">
<feFlood flood-opacity="0" result="BackgroundImageFix"/>
<feColorMatrix in="SourceAlpha" type="matrix" values="0 0 0 0 0 0 0 0 0 0 0 0 0 0 0 0 0 0 127 0"/>
<feOffset dy="4"/>
<feGaussianBlur stdDeviation="4"/>
<feColorMatrix type="matrix" values="0 0 0 0 0 0 0 0 0 0 0 0 0 0 0 0 0 0 0.25 0"/>
<feBlend mode="normal" in2="BackgroundImageFix" result="effect1_dropShadow"/>
<feBlend mode="normal" in="SourceGraphic" in2="effect1_dropShadow" result="shape"/>
</filter>
<filter id="filter5_d" x="46.0015" y="15.0139" width="36.7735" height="36.7735" filterUnits="userSpaceOnUse" color-interpolation-filters="sRGB">
<feFlood flood-opacity="0" result="BackgroundImageFix"/>
<feColorMatrix in="SourceAlpha" type="matrix" values="0 0 0 0 0 0 0 0 0 0 0 0 0 0 0 0 0 0 127 0"/>
<feOffset dy="4"/>
<feGaussianBlur stdDeviation="4"/>
<feColorMatrix type="matrix" values="0 0 0 0 0 0 0 0 0 0 0 0 0 0 0 0 0 0 0.25 0"/>
<feBlend mode="normal" in2="BackgroundImageFix" result="effect1_dropShadow"/>
<feBlend mode="normal" in="SourceGraphic" in2="effect1_dropShadow" result="shape"/>
</filter>
<linearGradient id="paint0_linear" x1="64.0785" y1="44.6578" x2="87.2675" y2="59.2924" gradientUnits="userSpaceOnUse">
<stop offset="0.0625" stop-color="#0072FF"/>
<stop offset="0.379615" stop-color="#0E4F96"/>
<stop offset="1" stop-color="#07294D"/>
</linearGradient>
<linearGradient id="paint1_linear" x1="1.81384" y1="44.6581" x2="25.003" y2="59.2928" gradientUnits="userSpaceOnUse">
<stop offset="0.0625" stop-color="#0072FF"/>
<stop offset="0.379615" stop-color="#0E4F96"/>
<stop offset="1" stop-color="#07294D"/>
</linearGradient>
<linearGradient id="paint2_linear" x1="25.1881" y1="39.0175" x2="55.658" y2="72.873" gradientUnits="userSpaceOnUse">
<stop offset="0.0625" stop-color="#0072FF"/>
<stop offset="0.379615" stop-color="#0E4F96"/>
<stop offset="1" stop-color="#07294D"/>
</linearGradient>
<linearGradient id="paint3_linear" x1="28.9526" y1="7.80479" x2="51.6794" y2="33.0566" gradientUnits="userSpaceOnUse">
<stop offset="0.0625" stop-color="#0072FF"/>
<stop offset="0.379615" stop-color="#0E4F96"/>
<stop offset="1" stop-color="#07294D"/>
</linearGradient>
<linearGradient id="paint4_linear" x1="7.35015" y1="20.3123" x2="24.3466" y2="39.1972" gradientUnits="userSpaceOnUse">
<stop offset="0.0625" stop-color="#0072FF"/>
<stop offset="0.379615" stop-color="#0E4F96"/>
<stop offset="1" stop-color="#07294D"/>
</linearGradient>
<linearGradient id="paint5_linear" x1="56.126" y1="20.3123" x2="73.1225" y2="39.1972" gradientUnits="userSpaceOnUse">
<stop offset="0.0625" stop-color="#0072FF"/>
<stop offset="0.379615" stop-color="#0E4F96"/>
<stop offset="1" stop-color="#07294D"/>
</linearGradient>
<clipPath id="clip0">
<rect width="80" height="80" fill="white"/>
</clipPath>
</defs>
</svg>
