<svg width="82" height="84" viewBox="0 0 82 84" fill="none" xmlns="http://www.w3.org/2000/svg">
<path d="M40.1825 0.599976C24.9238 0.599976 21.7652 8.68591 21.7652 13.3687V22.2H39.3055V24H13.1594C7.36978 24 0.716797 28.6828 0.716797 42C0.716797 55.3172 7.36978 60 13.1594 60H23.5192V49.2C23.5192 45.2414 26.6778 42 30.5353 42H51.5837C54.5641 42 56.8457 39.6586 56.8457 36.6V13.3687C56.8457 7.06872 51.0561 0.599976 40.1825 0.599976ZM32.2893 9.59997C34.2215 9.59997 35.7974 11.2172 35.7974 13.2C35.7974 15.1828 34.2215 16.8 32.2893 16.8C30.3572 16.8 28.7813 15.1828 28.7813 13.2C28.7813 11.2172 30.3572 9.59997 32.2893 9.59997ZM58.5998 24V36.6C58.5998 40.5586 55.4412 43.8 51.5837 43.8H30.5353C27.5548 43.8 25.2732 46.1414 25.2732 49.2V70.6312C25.2732 76.9312 31.0629 83.4 41.9365 83.4C57.1952 83.4 60.3538 75.314 60.3538 70.6312V61.8H42.8135V60H68.9595C74.7492 60 81.4022 55.3172 81.4022 42C81.4022 28.6828 74.7492 24 68.9595 24H58.5998ZM49.8296 67.2C51.7618 67.2 53.3377 68.8172 53.3377 70.8C53.3377 72.7828 51.7618 74.4 49.8296 74.4C47.8975 74.4 46.3216 72.7828 46.3216 70.8C46.3216 68.8172 47.8975 67.2 49.8296 67.2Z" fill="url(#paint0_linear)"/>
<defs>
<linearGradient id="paint0_linear" x1="8.96871" y1="5.77498" x2="76.8759" y2="79.3004" gradientUnits="userSpaceOnUse">
<stop offset="0.0625" stop-color="#0072FF"/>
<stop offset="0.379615" stop-color="#0E4F96"/>
<stop offset="1" stop-color="#07294D"/>
</linearGradient>
</defs>
</svg>
