<svg width="78" height="80" viewBox="0 0 78 80" fill="none" xmlns="http://www.w3.org/2000/svg">
<path d="M57.5307 0.400024H20.6795C9.55074 0.400024 0.499023 9.68479 0.499023 21.1V58.9C0.499023 70.3153 9.55074 79.6 20.6795 79.6H57.5307C68.6594 79.6 77.7111 70.3153 77.7111 58.9V21.1C77.7111 9.68479 68.6594 0.400024 57.5307 0.400024ZM64.7522 65.2C64.7522 65.2 61.856 60.1481 57.0029 60.1481C52.3245 60.1481 48.7429 65.2 39.3244 65.2C21.8208 65.1965 11.8985 51.8828 9.32796 47.7414C9.12918 47.4145 9.50619 47.0559 9.82151 47.2598C17.2658 52.0621 24.4667 54.4 29.4536 54.3965C36.747 54.3965 40.8599 50.8 40.8599 50.8C34.1422 46.7395 18.0472 27.85 14.6198 22.5731C14.3799 22.211 14.8049 21.8102 15.134 22.0914C29.0765 34.1219 37.0246 38.6571 37.0246 38.6571C34.0737 36.1153 25.2859 24.2465 21.6323 18.9731C21.3821 18.6145 21.8379 18.2031 22.1498 18.502C32.1509 28.0399 49.634 41.8 49.634 41.8C50.7342 38.6254 51.4299 34.8145 51.3854 31.9C51.2689 24.2149 46.4362 16.5543 44.4347 13.5555C44.2084 13.218 44.6197 12.8383 44.9453 13.0774C57.9694 22.675 61.9212 34.6598 61.9177 41.575C61.9143 46.5426 60.1629 49.675 60.1629 49.675C60.1629 49.675 67.59 57.986 64.7522 65.2Z" fill="url(#paint0_linear)"/>
<defs>
<linearGradient id="paint0_linear" x1="8.39571" y1="5.35003" x2="73.3481" y2="75.7079" gradientUnits="userSpaceOnUse">
<stop offset="0.0625" stop-color="#0072FF"/>
<stop offset="0.379615" stop-color="#0E4F96"/>
<stop offset="1" stop-color="#07294D"/>
</linearGradient>
</defs>
</svg>
