<svg width="23" height="22" viewBox="0 0 23 22" fill="none" xmlns="http://www.w3.org/2000/svg">
<path d="M22 1.01121C21.0859 1.76409 20.0738 2.33993 19.0027 2.71654C18.4278 1.9447 17.6638 1.39763 16.814 1.14934C15.9642 0.901042 15.0695 0.963498 14.2511 1.32826C13.4326 1.69302 12.7299 2.34249 12.2378 3.18882C11.7458 4.03515 11.4883 5.03751 11.5 6.06034V7.17494C9.82251 7.22573 8.16031 6.79131 6.66142 5.91037C5.16253 5.02942 3.87348 3.72931 2.90909 2.12581C2.90909 2.12581 -0.909091 12.1572 7.68182 16.6156C5.71596 18.1738 3.3741 18.9551 1 18.8448C9.59091 24.4178 20.0909 18.8448 20.0909 6.0269C20.09 5.71643 20.0645 5.40673 20.0145 5.10178C20.9888 3.97993 21.6762 2.56352 22 1.01121Z" fill="#07294D" stroke="white" stroke-width="1.5" stroke-linecap="round" stroke-linejoin="round"/>
</svg>
